<?xml version="1.0" encoding="UTF-8"?>
<svg xmlns="http://www.w3.org/2000/svg" id="Layer_1" data-name="Layer 1" viewBox="0 0 512 512" width="512" height="512"><path d="M46.544,161.7a5.994,5.994,0,0,0,7.705-3.554,180.313,180.313,0,0,1,52.556-75.019,6,6,0,1,0-7.758-9.154,192.342,192.342,0,0,0-56.058,80.022A6,6,0,0,0,46.544,161.7Z"/><path d="M118.925,72.408a5.971,5.971,0,0,0,3.358-1.033c1.709-1.157,3.46-2.3,5.2-3.4a6,6,0,1,0-6.383-10.161c-1.861,1.169-3.728,2.387-5.55,3.621a6,6,0,0,0,3.37,10.969Z"/><path d="M442.7,406.217a6,6,0,0,0-8.484,0l-4.534,4.535-5.953-5.953a97.44,97.44,0,0,0,3.946-111.581,216.888,216.888,0,1,0-135.6,134.522A97.43,97.43,0,0,0,404.3,424.221l5.954,5.953-4.534,4.534a6,6,0,0,0,0,8.485l56.149,56.15A25.969,25.969,0,0,0,480.357,507h0a26.146,26.146,0,0,0,18.487-44.634ZM357.628,67.906a205.132,205.132,0,0,1,63.344,206.121l-8.909.623a97.48,97.48,0,0,0-104.928-18.159,10.531,10.531,0,0,1,3.392-6.539L347.6,217.108a42.636,42.636,0,0,0,12.5-44.236,43.391,43.391,0,0,0-36.194-30.43l-3.765-.463a12.356,12.356,0,0,1-7.8-4.127,4.366,4.366,0,0,1-.6-4.923l7.787-13.314a261.448,261.448,0,0,1,33.094-44.8ZM124.15,42.2l24.226,18.217A72.141,72.141,0,0,0,155.268,65a60.641,60.641,0,0,1,19.073,17.663l14.319,20.649a16.455,16.455,0,0,1-.491,19.49l-6.642,8.616A9.306,9.306,0,0,1,173,134.959L165.467,134a33.2,33.2,0,0,0-32.946,16.265,9.566,9.566,0,0,1-9.456,4.444l-17.235-2.189a34.1,34.1,0,0,0-32.7,14.779,30.982,30.982,0,0,0-.525,33.96L84.1,219.4a29.362,29.362,0,0,0,38.523,10.132l11.83-6.339a15.823,15.823,0,0,1,15.538.378l22.454,13.472a11.48,11.48,0,0,0,6.223,1.638c8.05-.213,15.961,4.02,21.195,11.317l10.986,15.314c.862,1.2,1.788,2.386,2.752,3.521l14.372,16.907a1.326,1.326,0,0,1,.308,1.129,1.789,1.789,0,0,1-.715,1.008l-21.587,16.577a40.871,40.871,0,0,0-14.243,20.489l-7.256,23.541a8.739,8.739,0,0,1-1.643,3.034l-7.064,8.494a46.155,46.155,0,0,0-10.684,25.34,5.208,5.208,0,0,1-2.766,4.146l-6.574-39.449a36.938,36.938,0,0,0-7.037-16.264l-24.374-31.956a22.32,22.32,0,0,1-3.774-7.6l-8.043-29.023a36.566,36.566,0,0,0-25.5-25.394l-1.754-.479a16.541,16.541,0,0,1-6.962-3.9L63.3,221.314a27.963,27.963,0,0,1-4.992-6.276,39.481,39.481,0,0,0-39.129-19.291A205.517,205.517,0,0,1,124.15,42.2Zm98.407,384.923C109.485,427.124,17.5,335.133,17.5,222.062c0-4.686.173-9.331.484-13.939l1.006-.2a27.446,27.446,0,0,1,28.959,13.164,39.978,39.978,0,0,0,7.132,8.965l15.005,14.123a28.585,28.585,0,0,0,12.027,6.738l1.753.478a24.507,24.507,0,0,1,17.094,17.023L109,297.438a34.253,34.253,0,0,0,5.8,11.667l24.374,31.957a24.885,24.885,0,0,1,4.742,10.959l6.625,39.749a11.631,11.631,0,0,0,11.524,9.894,11.582,11.582,0,0,0,4.489-.9,17.187,17.187,0,0,0,10.49-14.319A34.2,34.2,0,0,1,185,367.684l7.062-8.494a20.657,20.657,0,0,0,3.884-7.172l7.257-23.541a28.941,28.941,0,0,1,10.083-14.506L234.873,297.4a13.624,13.624,0,0,0,5.257-8.632,13.389,13.389,0,0,0-3.015-10.8l-14.371-16.906c-.752-.885-1.474-1.81-2.147-2.748L209.612,243c-7.526-10.491-19.149-16.581-31.115-16.322l-22.334-13.4a27.882,27.882,0,0,0-27.379-.664l-11.829,6.338a17.312,17.312,0,0,1-22.718-5.975L82.745,194.833a18.981,18.981,0,0,1,.321-20.809,22.157,22.157,0,0,1,21.249-9.606l17.239,2.19A21.422,21.422,0,0,0,142.9,156.293,21.217,21.217,0,0,1,163.948,145.9l7.537.964a21.369,21.369,0,0,0,19.546-8.119l6.642-8.617a28.409,28.409,0,0,0,.848-33.652L184.2,75.825a72.7,72.7,0,0,0-22.875-21.182,60.532,60.532,0,0,1-5.746-3.82l-19.5-14.667A204.693,204.693,0,0,1,348.36,60.238l-4.819,6.724a273.433,273.433,0,0,0-34.368,46.594l-7.82,13.37a16.327,16.327,0,0,0,1.954,18.827,24.328,24.328,0,0,0,15.355,8.137l3.754.462a31.341,31.341,0,0,1,26.148,22,30.627,30.627,0,0,1-9.015,31.761l-36.967,32.844A22.883,22.883,0,0,0,295,258.246v4.521a97.543,97.543,0,0,0-14.492,156.044A204.969,204.969,0,0,1,222.557,427.124Zm123.132,4.7a85.637,85.637,0,1,1,85.637-85.636A85.733,85.733,0,0,1,345.689,431.822Zm70.218-17.869,5.285,5.285-2.451,2.451-5.285-5.285Q414.7,415.2,415.907,413.953Zm2.543,25,20-20.006,6.159,6.159-20.006,20Zm71.911,51.9a14.162,14.162,0,0,1-20.006,0l-37.261-37.262,20.006-20,37.261,37.262a14.146,14.146,0,0,1,0,20Z"/><path d="M345.689,271.813a74.373,74.373,0,1,0,74.373,74.373A74.458,74.458,0,0,0,345.689,271.813Zm0,12a61.983,61.983,0,0,1,33.806,10,41.968,41.968,0,0,0-3,5.62l-1.309,3.2A22.193,22.193,0,0,1,355.057,316H333.291a4.3,4.3,0,0,1-4.09-3.931l-.87-8.814a41.79,41.79,0,0,0-4.668-15.412A62.032,62.032,0,0,1,345.689,283.813Zm-62.372,62.373a62.381,62.381,0,0,1,29.605-53.041,29.441,29.441,0,0,1,3.468,11.2l.87,8.921A16.254,16.254,0,0,0,333.291,328h21.766a34.2,34.2,0,0,0,31.118-20.55l1.309-3.095a31.9,31.9,0,0,1,1.524-2.981,62.618,62.618,0,0,1,13.487,19.1,204.679,204.679,0,0,1-82.967,82.306A62.444,62.444,0,0,1,283.317,346.186Zm62.372,62.372a62.535,62.535,0,0,1-10.507-.9,216.34,216.34,0,0,0,72.063-71.494,62.338,62.338,0,0,1-61.556,72.4Z"/></svg>
