<svg id="Layer_1" enable-background="new 0 0 510.656 510.656" height="512" viewBox="0 0 510.656 510.656" width="512" xmlns="http://www.w3.org/2000/svg"><path d="m138 479.328h-7.752c-4.418 0-8 3.582-8 8s3.582 8 8 8h7.752c4.418 0 8-3.582 8-8s-3.582-8-8-8z"/><path d="m502.656 409.784h-45.656c-4.418 0-8 3.582-8 8v29.544h-33v-26h10.121c4.418 0 8-3.582 8-8v-58.177h22.879c5.489 0 9.338-5.408 7.571-10.582l-7.353-21.559c-4.852-17.005-22.935-28.859-44.078-28.859h-32.64v-28.823c0-4.418-3.582-8-8-8s-8 3.582-8 8v28.823h-30.918c-16.756 0-32.055 7.569-39.926 19.755-2.397 3.711-1.332 8.663 2.379 11.061 3.71 2.398 8.663 1.332 11.061-2.379 4.881-7.555 15.277-12.437 26.486-12.437h79.559c13.854 0 25.936 7.307 28.728 17.374.083.302-.254-.704 3.951 11.626h-155.429c-4.418 0-8 3.582-8 8s3.582 8 8 8h20.488v58.177c0 4.418 3.582 8 8 8h10.121v26h-79.5v-67.089c0-4.418-3.582-8-8-8s-8 3.582-8 8v67.089h-29.5v-67.089c0-4.418-3.582-8-8-8h-41.836c-4.418 0-8 3.582-8 8v67.089h-29.664v-92.177h152.415c5.478 0 9.34-5.396 7.572-10.582l-7.353-21.559c-4.646-16.278-21.415-27.827-41.383-28.787v-24.25h27.249c5.489 0 9.338-5.408 7.571-10.582l-7.352-21.56c-4.645-16.277-21.414-27.826-41.383-28.786v-20.718h26.164c5.778 0 9.655-5.954 7.315-11.239l-7.201-16.265c-4.791-16.085-21.459-27.471-41.277-28.423v-10.073c0-4.418-3.582-8-8-8s-8 3.582-8 8v9h-15.673v-28h62.836c5.778 0 9.655-5.954 7.315-11.239l-7.201-16.265c-5.006-16.81-22.982-28.496-43.973-28.496h-3.141v-24c0-4.418-3.582-8-8-8s-8 3.582-8 8v24h-3.809c-21.438 0-39.508 11.999-44.189 29.255l-6.411 15.725c-2.142 5.256 1.73 11.021 7.408 11.021h31.164v29.037c-20.542.73-37.629 12.509-42.161 29.218l-6.411 15.725c-2.141 5.256 1.729 11.021 7.408 11.021h87.836v20.646h-59.645c-21.584 0-39.753 12.163-44.283 29.607l-6.546 21.013c-1.604 5.147 2.249 10.38 7.638 10.38h27.249v24.214c-20.687.735-37.869 12.676-42.255 29.571l-6.546 21.013c-1.604 5.147 2.249 10.38 7.638 10.38h19.415v92.177h-38.844v-1c0-4.418-3.582-8-8-8s-8 3.582-8 8v33h-29.656v-53.544h37.656c4.418 0 8-3.582 8-8s-3.582-8-8-8h-45.656c-4.418 0-8 3.582-8 8v69.544c0 4.418 3.582 8 8 8h100.5c4.418 0 8-3.582 8-8s-3.582-8-8-8h-46.844v-16h387.344v16h-288c-4.418 0-8 3.582-8 8s3.582 8 8 8h341.657c4.418 0 8-3.582 8-8v-69.544c-.001-4.42-3.583-8.002-8.001-8.002zm-368.291-328.709c2.593-10.283 14.716-17.747 28.826-17.747h22.95c13.854 0 25.936 7.307 28.728 17.374.244.876.384 1.079 2.84 6.626h-85.809c2.329-5.711 2.283-5.528 2.465-6.253zm-10 85c2.593-10.283 14.716-17.747 28.826-17.747h42.95c13.854 0 25.936 7.307 28.728 17.374.244.876.384 1.079 2.84 6.626h-105.809c2.329-5.711 2.283-5.528 2.465-6.253zm65.302 103.899c4.418 0 8-3.582 8-8s-3.582-8-8-8h-83.795l3.374-10.829c3.915-12.527 16.523-18.171 28.946-18.171h72.95c13.854 0 25.936 7.307 28.728 17.374.092.331-.18-.487 3.951 11.626h-28.486c-8.392 0-11.112 11.363-3.582 15.146v24.032h-73.503v-23.178zm-94.336 58.348c3.915-12.527 16.522-18.171 28.945-18.171h100.78c13.854 0 25.936 7.307 28.728 17.374.092.33-.231-.635 3.95 11.626h-165.777zm249.669 93.006h17.5c4.418 0 8-3.582 8-8s-3.582-8-8-8h-35.621v-50.177h91.242v50.177h-32.621c-4.418 0-8 3.582-8 8s3.582 8 8 8h14.5v26h-55zm-182.836-33.089h25.836v59.089h-25.836zm332.492 91.089h-29.656v-53.544h29.656z"/></svg>